PathFileType	4	(X/Y/Z)	49_2_rein_71_p0_0-343_filt_butterworth.trc
DataRate	CameraRate	NumFrames	NumMarkers	Units	OrigDataRate	OrigDataStartFrame	OrigNumFrames
59.0	59.0	6	27	m	59.0	214	343
Frame#	Time	RHip			RKnee			RAnkle			RBigToe			RSmallToe			RHeel			LHip			LKnee			LAnkle			LBigToe			LSmallToe			LHeel			Neck			Head			Nose			RShoulder			RElbow			RWrist			RThumb			RIndex			RPinky			LShoulder			LElbow			LWrist			LThumb			LIndex			LPinky			
		X1	Y1	Z1	X2	Y2	Z2	X3	Y3	Z3	X4	Y4	Z4	X5	Y5	Z5	X6	Y6	Z6	X7	Y7	Z7	X8	Y8	Z8	X9	Y9	Z9	X10	Y10	Z10	X11	Y11	Z11	X12	Y12	Z12	X13	Y13	Z13	X14	Y14	Z14	X15	Y15	Z15	X16	Y16	Z16	X17	Y17	Z17	X18	Y18	Z18	X19	Y19	Z19	X20	Y20	Z20	X21	Y21	Z21	X22	Y22	Z22	X23	Y23	Z23	X24	Y24	Z24	X25	Y25	Z25	X26	Y26	Z26	X27	Y27	Z27	
214	3.6271186440677967	0.3606334122653721	0.5832062835093925	0.7940057657132755	0.3633408069648124	0.8374707010009141	1.1955808658346758	0.3464358228844636	1.011911690115626	1.5913421195575332	0.30520568580839236	0.8678375862400876	1.67370074479961	0.3696320312243185	0.8655045122569722	1.6717874351347686	0.32413098323244594	1.13857226046404	1.6373068438329215	0.14313120762256568	0.6560428936738611	0.7697153903922981	0.1378107460094556	0.8679022109040788	1.1872046022832388	0.167771881357271	1.0347604245384565	1.5833897457211843	0.15896671818676644	0.8557966077218829	1.650160146186909	0.11133264670798829	0.9113518415782683	1.6470171490194407	0.1864240304590512	1.1174129194122095	1.6381916917441504	0.27214579394002747	0.4209042252399385	0.2012826503500344	0.25961308044257303	0.2515305495878216	-0.01637968459703652	0.22844919703888167	0.2728249819688304	0.14464102356774394	0.41796106669371286	0.4330967485712639	0.2755391303759804	0.4417957072464688	0.41484414143299375	0.5529664961950085	0.19700788793029056	0.3863011665964142	0.5135813649056682	0.11093563376196713	0.4461332561244422	0.46144848932738614	0.06968067396569998	0.4358705544122208	0.4836572010324257	0.11436194341495529	0.40137132249238744	0.48837221714237594	0.11622916881981862	0.4943487122880384	0.24275115985787216	0.0753610153211716	0.390498460521024	0.5006211691966975	0.3225275765654632	0.38197590054062336	0.48884868447996893	0.424322227388222	0.3877765478580021	0.5188588122870359	0.44574440311282776	0.4082496480526233	0.5514452997944926	0.4356983529880456	0.40335143611292024	0.5593508284578935
215	3.6440677966101696	0.36056276705219087	0.5830330389229982	0.7926454232660992	0.3646051125989957	0.838206606170315	1.1950072790222035	0.34683513634778873	1.0114358298404786	1.5912656081612448	0.30521105025265993	0.8680958965199908	1.6737406754329793	0.3696396912927183	0.8658044825907243	1.6718350536182094	0.3253946515236356	1.1374161336628799	1.636454134250108	0.14533720472143338	0.6513062349251577	0.7698956547669982	0.13928471251748809	0.8729872879034575	1.1861219546814021	0.16806249839287452	1.0347526848698758	1.5835696903091894	0.16013573759752595	0.8615973231070557	1.6517696826758792	0.11160878539313716	0.914113077998865	1.6479854665068543	0.18673354779472812	1.1169843786471991	1.63585279781467	0.2721282078133428	0.42070499233213243	0.2012992811106842	0.25969315890541944	0.25141637530064836	-0.01746770965086282	0.23264122276198063	0.2698070074794266	0.1445766193032392	0.417961546244362	0.43293355714535753	0.27555336213097914	0.44180698751036745	0.41475017682690507	0.5529107938233774	0.19690371514598093	0.38195533171812623	0.5135174819482315	0.11117446179200798	0.44356579779733074	0.4613657364199886	0.06955660224401168	0.4368894068215797	0.48354350255570383	0.11434656241750817	0.4013839587966131	0.48935969052791684	0.11589858620394913	0.4913165085453594	0.24418266474894892	0.07669610621424354	0.3902226629527581	0.5016010085153811	0.3226039101231739	0.38288797088834475	0.48797500912638925	0.4240190119532765	0.39026958545112717	0.5188967018191207	0.4469431911007264	0.410903995181661	0.5511417327967857	0.4376981342704396	0.4031320825453702	0.5601162890198741
216	3.6610169491525424	0.36052900116548203	0.5828957696802419	0.791633008124503	0.3651700013392228	0.8386807707680004	1.1946482386166921	0.3468267598157336	1.0112100457334434	1.5912248295891098	0.30531387240983887	0.8680019264677784	1.6736952517613872	0.3695323006643695	0.8657732930531303	1.6713813156438366	0.3260458279871743	1.136423829463743	1.63573690919574	0.14619235391223748	0.6477178045268492	0.7699808155347027	0.14033995401125057	0.8770985319704211	1.1853448106831082	0.16820469563206814	1.0348822466072505	1.583622358851876	0.16087782441199855	0.8654260791776394	1.6522703025745609	0.11165330610407932	0.9144525488683618	1.6480906513052653	0.18683431812494306	1.1161057681065725	1.634763578452028	0.27209414589052194	0.4204443375798373	0.20132614041979666	0.26044945567134686	0.2510413932097368	-0.01930307274898066	0.2372952992211103	0.2672947100713122	0.14515666276521674	0.4179025790857027	0.4327485327033889	0.2755442104146878	0.4418280729353727	0.41469437377369117	0.5528687486713815	0.19682703578957567	0.37877955542186076	0.51305826747515	0.11129196310559299	0.44133364424193877	0.46086227872850344	0.0695228663609967	0.43717899891537176	0.4834746285888729	0.11433509638925898	0.40140152001499313	0.4907391679097832	0.11579651463383382	0.48737425751120017	0.24485854399489973	0.07852818568138303	0.386848481925674	0.5034333462743428	0.322519654692387	0.3824516752248612	0.4876370804996255	0.4234004050896423	0.3933327900077073	0.5183944444504897	0.44730098993396095	0.41173600513061537	0.5510236806681419	0.4386664106976643	0.4029155672643988	0.5605530864426338
217	3.6779661016949152	0.36054065700162025	0.5828401565675947	0.7912406313116199	0.3653330674280425	0.8387391943901271	1.1943919309595588	0.3467335030157794	1.0111629660043515	1.5912133140250675	0.3053784540183025	0.8679423685747418	1.6736557275653823	0.36925447317478877	0.8650695856502666	1.67009635701741	0.326265003849768	1.135877920295423	1.6353742724754206	0.1462019976521861	0.6462948076856425	0.7700099944861818	0.14067816511300274	0.8785742729119237	1.185333876980601	0.1680454640530999	1.0349487325584394	1.5835414905284617	0.16104904646343352	0.8664274432223619	1.6518668959115679	0.11161908107798277	0.914072579044867	1.6479374223276106	0.18682228950613972	1.1152324279338142	1.6351916381641989	0.27204747280945013	0.4202615902930948	0.20135113504910415	0.26226685758463325	0.2504995798294003	-0.021169355295285013	0.24160511711606555	0.26423645013514885	0.14640634523631207	0.41781385152409733	0.4325640506459302	0.27552505232703167	0.4418658404646708	0.4146809716550201	0.5530321247998865	0.19682428572689586	0.3778191539906107	0.513094535443759	0.11195244636140426	0.4380285395879306	0.4605102505970104	0.06983648840518566	0.43430121394739096	0.48393732888398966	0.11439403053139335	0.40133874385319707	0.4919411344039199	0.11580228396982839	0.48419721675081134	0.24497869210942577	0.07998309346690072	0.38029681659016223	0.5055155361804962	0.32239164485207383	0.3818451414891048	0.4881591194327173	0.42256055895124645	0.3956273154951988	0.5185474430305279	0.4471881501909739	0.4114519516729264	0.5510203384354981	0.43882569491921763	0.40274506105143937	0.5606839255895842
218	3.694915254237288	0.3605632226338193	0.5828672208620409	0.7912126868151166	0.3653641378866706	0.8384497145413748	1.194197618175981	0.34667960047586044	1.0111848994693353	1.591214679233932	0.30538721891708587	0.8678789237307599	1.6736284376066424	0.36887799149731904	0.8639190102107337	1.668368237864994	0.32623088397768324	1.1358427075046733	1.635002799545615	0.14601707964912347	0.6462362965500953	0.7700193226678453	0.1403125191610067	0.877078981678518	1.186091889329556	0.1675444483625623	1.0345448709360123	1.5833306399715663	0.16097063831862496	0.8660198663385548	1.6514015547971952	0.11161454432398604	0.9137359478841951	1.6478005149675683	0.1868205266120147	1.1148108495851092	1.636663578127242	0.27198629602133884	0.42031137110331834	0.2013665108996308	0.2646094471284189	0.2500024956579664	-0.022363263410607258	0.24529240634663976	0.26066642464532663	0.14775506011063597	0.41775798437280287	0.43244413137619575	0.2755053728650912	0.4419232261899204	0.4147339423076782	0.5536468818889944	0.19687262130532626	0.37815825522422186	0.5140678808895829	0.11311616264216363	0.43409066817082853	0.46050205963366353	0.07068036884188017	0.42585675941976564	0.48537507883808884	0.1146349279231214	0.40106639519163045	0.4926176041257389	0.11582201785578307	0.48280461958371945	0.24492013799589196	0.0806619467534629	0.37375583762802295	0.5070118527629744	0.3223757671800259	0.3816794915111341	0.48908222421676745	0.4217901966601378	0.39654478228971085	0.5199340355470934	0.44709264714439273	0.41101437050257034	0.5510287461425988	0.4386630628210688	0.40262209030915225	0.5606729089649737
219	3.711864406779661	0.3605447495315723	0.5829530741776535	0.7912661946305635	0.36536350589051725	0.8379971658008302	1.1940779377127904	0.3466601671693023	1.011206247472357	1.5912121523685048	0.3053592003125061	0.8677750443774557	1.6736192130169807	0.3685565537414116	0.8629785663527167	1.6670918544215996	0.3260594299833106	1.1361421702615846	1.6346215614491368	0.14590249449171305	0.6465120598778293	0.7700160678261412	0.13933534258084387	0.872876369009267	1.1871668550184604	0.16697682788773824	1.0336267810480804	1.5830451995678525	0.1609022757801681	0.8655327336900002	1.651223874801568	0.1116599022447331	0.9135487958361777	1.6477262523966352	0.1868511644674572	1.1147541106930892	1.6380303145884638	0.27190653465112535	0.42053156895074156	0.2013638188497522	0.26632431339538115	0.24965342067561427	-0.02293834766416604	0.24828527950419738	0.258007770875379	0.14863903150288726	0.41776738272854375	0.43240905812333985	0.2754901108343058	0.44198512479748076	0.4148676793376671	0.5546937016900512	0.19692394339715363	0.3786439189935123	0.5152354216265029	0.11404273758091744	0.43098218483407075	0.46078689018006713	0.07180138797106782	0.41317301342684354	0.4875658289566832	0.11506399196571018	0.4005432478563853	0.492812281784352	0.1158320070768103	0.482647755485709	0.2448839600602089	0.0810528901507702	0.37058686939629293	0.5075470269229243	0.32276711949961234	0.3818879418901817	0.48962767270046137	0.42138533971287984	0.39671023899083313	0.5219609361324004	0.4471983105445314	0.4108625903069562	0.5510112732789763	0.4385057695091986	0.40254407137758685	0.5606505848622505
